
<svg width="490" height="381" viewBox="0 0 490 381" fill="none" xmlns="http://www.w3.org/2000/svg" role="img" aria-labelledby="descId">
    <style>
        .header {
            font: 600 18px 'Segoe UI', Ubuntu, Sans-Serif;
            fill: #41b883;
            animation: fadeInAnimation 0.8s ease-in-out forwards;
        }
        .stat-label {
            font: 600 12px 'Segoe UI', Ubuntu, Sans-Serif;
            fill: #fffefe;
        }
        .stat-value {
            font: 700 12px 'Segoe UI', Ubuntu, Sans-Serif;
            fill: #41b883;
        }
        .lang-name {
            font: 400 11px "Segoe UI", Ubuntu, Sans-Serif;
            fill: #fffefe;
        }
        .stagger {
            opacity: 0;
            animation: fadeInAnimation 0.3s ease-in-out forwards;
        }
        @keyframes fadeInAnimation {
            from { opacity: 0; }
            to { opacity: 1; }
        }
    </style>
    
    <rect x="0.5" y="0.5" rx="4.5" height="99%" stroke="#e4e2e2" width="489" fill="#273849" stroke-opacity="0"/>
    
    <g transform="translate(245, 35)">
        <text x="0" y="0" class="header" text-anchor="middle">GitHub Advanced Stats</text>
    </g>

    <g transform="translate(20, 55)">
        <mask id="rect-mask">
             <rect x="0" y="0" width="450" height="8" fill="white" rx="5"/>
        </mask>
        
            <rect mask="url(#rect-mask)" x="0" y="0" width="291.67906731659235" height="8" fill="#f34b7d"/>
        
            <rect mask="url(#rect-mask)" x="291.67906731659235" y="0" width="101.89401057259886" height="8" fill="#555555"/>
        
            <rect mask="url(#rect-mask)" x="393.5730778891912" y="0" width="16.656242998285727" height="8" fill="#00ADD8"/>
        
            <rect mask="url(#rect-mask)" x="410.22932088747694" y="0" width="15.575967916706741" height="8" fill="#4F5D95"/>
        
            <rect mask="url(#rect-mask)" x="425.8052888041837" y="0" width="5.551537203625108" height="8" fill="#f1e05a"/>
        
            <rect mask="url(#rect-mask)" x="431.3568260078088" y="0" width="4.72066665190911" height="8" fill="#663399"/>
        
            <rect mask="url(#rect-mask)" x="436.0774926597179" y="0" width="2.3818256191870493" height="8" fill="#384d54"/>
        
            <rect mask="url(#rect-mask)" x="438.45931827890496" y="0" width="1.789903887112825" height="8" fill="#cccccc"/>
        
            <rect mask="url(#rect-mask)" x="440.2492221660178" y="0" width="1.604074030273387" height="8" fill="#e34c26"/>
        
            <rect mask="url(#rect-mask)" x="441.8532961962912" y="0" width="1.459795116417069" height="8" fill="#00ADD8"/>
        
            <rect mask="url(#rect-mask)" x="443.31309131270825" y="0" width="1.3277268901476997" height="8" fill="#89e051"/>
        
            <rect mask="url(#rect-mask)" x="444.64081820285594" y="0" width="5.359181797144061" height="8" fill="#d4d4d4"/>
        

        <g transform="translate(5, 25)">
            
            <g transform="translate(0, 0)">
                <g transform="translate(0, 0)">
                    
                        <g transform="translate(0, 0)" class="stagger" style="animation-delay: 450ms">
                            <circle cx="5" cy="6" r="5" fill="#f34b7d" />
                            <text x="15" y="10" class='lang-name'>C&#43;&#43; 64.82%</text>
                        </g>
                    
                        <g transform="translate(0, 25)" class="stagger" style="animation-delay: 550ms">
                            <circle cx="5" cy="6" r="5" fill="#555555" />
                            <text x="15" y="10" class='lang-name'>C 22.64%</text>
                        </g>
                    
                        <g transform="translate(0, 50)" class="stagger" style="animation-delay: 650ms">
                            <circle cx="5" cy="6" r="5" fill="#00ADD8" />
                            <text x="15" y="10" class='lang-name'>Go 3.70%</text>
                        </g>
                    
                        <g transform="translate(0, 75)" class="stagger" style="animation-delay: 750ms">
                            <circle cx="5" cy="6" r="5" fill="#4F5D95" />
                            <text x="15" y="10" class='lang-name'>PHP 3.46%</text>
                        </g>
                    
                        <g transform="translate(0, 100)" class="stagger" style="animation-delay: 850ms">
                            <circle cx="5" cy="6" r="5" fill="#f1e05a" />
                            <text x="15" y="10" class='lang-name'>JavaScript 1.23%</text>
                        </g>
                    
                        <g transform="translate(0, 125)" class="stagger" style="animation-delay: 950ms">
                            <circle cx="5" cy="6" r="5" fill="#663399" />
                            <text x="15" y="10" class='lang-name'>CSS 1.05%</text>
                        </g>
                    
                </g>
                
                
                    <g transform="translate(130, 0)">
                
                    
                        <g transform="translate(0, 0)" class="stagger" style="animation-delay: 450ms">
                            <circle cx="5" cy="6" r="5" fill="#384d54" />
                            <text x="15" y="10" class='lang-name'>Dockerfile 0.53%</text>
                        </g>
                    
                        <g transform="translate(0, 25)" class="stagger" style="animation-delay: 550ms">
                            <circle cx="5" cy="6" r="5" fill="#cccccc" />
                            <text x="15" y="10" class='lang-name'>Gettext Catalog 0.40%</text>
                        </g>
                    
                        <g transform="translate(0, 50)" class="stagger" style="animation-delay: 650ms">
                            <circle cx="5" cy="6" r="5" fill="#e34c26" />
                            <text x="15" y="10" class='lang-name'>HTML 0.36%</text>
                        </g>
                    
                        <g transform="translate(0, 75)" class="stagger" style="animation-delay: 750ms">
                            <circle cx="5" cy="6" r="5" fill="#00ADD8" />
                            <text x="15" y="10" class='lang-name'>Go Template 0.32%</text>
                        </g>
                    
                        <g transform="translate(0, 100)" class="stagger" style="animation-delay: 850ms">
                            <circle cx="5" cy="6" r="5" fill="#89e051" />
                            <text x="15" y="10" class='lang-name'>Shell 0.30%</text>
                        </g>
                    
                        <g transform="translate(0, 125)" class="stagger" style="animation-delay: 950ms">
                            <circle cx="5" cy="6" r="5" fill="#d4d4d4" />
                            <text x="15" y="10" class='lang-name'>Others 1.19%</text>
                        </g>
                    
                </g>
            </g>
            
            <g transform="translate(295, 2)">
                
                    
                        <g transform="translate(0, 2)" class="stagger" style="animation-delay: 0ms">
                            <text x="0" y="10" class="stat-label">Total Commits:</text>
                            <text x="115" y="10" class="stat-value">483</text>
                        </g>
                    
                        <g transform="translate(0, 24)" class="stagger" style="animation-delay: 100ms">
                            <text x="0" y="10" class="stat-label">Merged PRs:</text>
                            <text x="115" y="10" class="stat-value">136</text>
                        </g>
                    
                        <g transform="translate(0, 46)" class="stagger" style="animation-delay: 200ms">
                            <text x="0" y="10" class="stat-label">Code Reviews:</text>
                            <text x="115" y="10" class="stat-value">1</text>
                        </g>
                    
                        <g transform="translate(0, 68)" class="stagger" style="animation-delay: 300ms">
                            <text x="0" y="10" class="stat-label">Total Issues:</text>
                            <text x="115" y="10" class="stat-value">107</text>
                        </g>
                    
                        <g transform="translate(0, 90)" class="stagger" style="animation-delay: 400ms">
                            <text x="0" y="10" class="stat-label">Total Stars:</text>
                            <text x="115" y="10" class="stat-value">6</text>
                        </g>
                    
                        <g transform="translate(0, 112)" class="stagger" style="animation-delay: 500ms">
                            <text x="0" y="10" class="stat-label">Total Repositories:</text>
                            <text x="115" y="10" class="stat-value">14</text>
                        </g>
                    
                        <g transform="translate(0, 134)" class="stagger" style="animation-delay: 600ms">
                            <text x="0" y="10" class="stat-label">Followers:</text>
                            <text x="115" y="10" class="stat-value">9</text>
                        </g>
                    
                
            </g>
        </g>
    </g>


    <g transform="translate(10, 246)">
        <rect width="470" height="120" rx="6" fill="#1f2d3d" stroke="#2e3f51" stroke-width="1"/>

        <g transform="translate(0, 20)">
			<text x="78" y="30" fill="#2eb872" font-family="Segoe UI, Ubuntu, sans-serif" font-weight="bold" font-size="22px" text-anchor="middle">
                1.7K
            </text>
            <text x="78" y="55" fill="#a4b1cd" font-family="Segoe UI, Ubuntu, sans-serif" font-size="12px" text-anchor="middle">
                Total Contributions
            </text>
            <text x="78" y="75" fill="#ffffff" opacity="0.6" font-family="Segoe UI, Ubuntu, sans-serif" font-size="10px" text-anchor="middle">
                Jul  3, 2015 - Present
            </text>
        </g>

        <line x1="156" y1="20" x2="156" y2="100" stroke="#4b5d73" stroke-width="1"/>

        <g transform="translate(156, 15)">
            <path d="M79,32 C84.8,32 89.5,28.5 89.5,22.3 C89.5,19.7 88.6,15.3 85.1,11.8 C85.5,14.4 82.9,15.3 82.9,15.3 C82.5,11.8 79,5.7 73.8,4.8 C74.4,8.3 74.6,11.8 70.3,15.3 C68.1,17 66.8,20 66.8,23.1 C66.8,28.5 71.5,32 79,32 M79,30.2 C76.1,30.2 73.8,28.5 73.8,25.4 C73.8,24.1 74.2,21.9 76,20.2 C75.8,21.9 77.3,22.8 77.3,22.8 C76.6,20.6 78.2,17.1 80.8,16.7 C80.5,18.4 80.4,20.2 82.6,21.9 C83.7,22.8 84.3,24.3 84.3,25.8 C84.3,28.5 81.9,30.2 79,30.2" fill="#2eb872"/>
            <text x="79" y="54" fill="#2eb872" font-family="Segoe UI, Ubuntu, sans-serif" font-weight="bold" font-size="22px" text-anchor="middle">
                4
            </text>
            <text x="79" y="74" fill="#2eb872" font-family="Segoe UI, Ubuntu, sans-serif" font-weight="bold" font-size="12px" text-anchor="middle">
                Current Streak
            </text>
            <text x="79" y="94" fill="#ffffff" opacity="0.6" font-family="Segoe UI, Ubuntu, sans-serif" font-size="10px" text-anchor="middle">
                Jun  1, 2026 - Jun  4, 2026
            </text>
        </g>

        <line x1="313" y1="20" x2="313" y2="100" stroke="#4b5d73" stroke-width="1"/>

        <g transform="translate(313, 20)">
            <text x="78" y="30" fill="#2eb872" font-family="Segoe UI, Ubuntu, sans-serif" font-weight="bold" font-size="22px" text-anchor="middle">
                19
            </text>
            <text x="78" y="55" fill="#a4b1cd" font-family="Segoe UI, Ubuntu, sans-serif" font-size="12px" text-anchor="middle">
                Longest Streak
            </text>
            <text x="78" y="75" fill="#ffffff" opacity="0.6" font-family="Segoe UI, Ubuntu, sans-serif" font-size="10px" text-anchor="middle">
                Feb  1, 2025 - Feb 19, 2025
            </text>
        </g>
    </g>

</svg>
